<svg xmlns="http://www.w3.org/2000/svg" enable-background="new 0 0 512 512" viewBox="0 0 512 512"><path fill="#6d6d6d" d="M509.4,103.044v321.041c0,8.933-7.242,16.174-16.175,16.174H18.773c-8.933,0-16.175-7.242-16.175-16.174V103.044c0-8.933,7.242-16.175,16.175-16.175h474.452C502.159,86.87,509.4,94.111,509.4,103.044z"/><path d="M509.419,103.023v321.064c0,8.95-7.278,16.174-16.174,16.174h-51.543c8.95,0,16.175-7.225,16.175-16.174V103.023c0-8.896-7.224-16.175-16.175-16.175h51.543C502.141,86.848,509.419,94.127,509.419,103.023z" opacity=".08"/><path fill="#66d5f2" d="M487.834,363.547V119.218c0-5.955-4.828-10.783-10.783-10.783H34.948c-5.955,0-10.783,4.828-10.783,10.783v244.329c0,5.955,4.828,10.783,10.783,10.783h442.103C483.006,374.33,487.834,369.502,487.834,363.547z"/><rect width="140.977" height="42.164" x="185.511" y="440.259" fill="#5b5b5b"/><rect width="18.762" height="42.161" x="307.723" y="440.262" opacity=".08"/><path fill="#6d6d6d" d="M366.241,495.908L366.241,495.908c0,7.447-6.037,13.484-13.484,13.484H159.242c-7.447,0-13.484-6.037-13.484-13.484v0c0-7.447,6.037-13.484,13.484-13.484h193.515C360.204,482.424,366.241,488.461,366.241,495.908z"/><path d="M366.221,495.902c0,7.44-6.038,13.479-13.479,13.479H325.03c7.44,0,13.479-6.038,13.479-13.479s-6.038-13.479-13.479-13.479h27.712C360.182,482.423,366.221,488.461,366.221,495.902z" opacity=".08"/><path fill="#fff" d="M43 395.38v21.943c0 5.196-4.212 9.408-9.408 9.408h0c-5.196 0-9.408-4.212-9.408-9.408V395.38c0-5.196 4.212-9.408 9.408-9.408h0C38.788 385.972 43 390.184 43 395.38zM208.394 455.472v11.739c0 2.78-2.253 5.033-5.033 5.033h0c-2.78 0-5.033-2.253-5.033-5.033v-11.739c0-2.78 2.253-5.033 5.033-5.033h0C206.14 450.439 208.394 452.693 208.394 455.472z" opacity=".4"/><path fill="#f2f0f0" d="M391.732,15.375v358.938h-271.48V15.375c0-7.051,5.716-12.767,12.767-12.767h245.946C386.016,2.607,391.732,8.323,391.732,15.375z"/><path d="M364.949 244.947c0 4.596-3.702 8.299-8.299 8.299h-16.214c4.554 0 8.299-3.702 8.299-8.299s-3.745-8.299-8.299-8.299h16.214C361.246 236.648 364.949 240.351 364.949 244.947zM364.949 281.732c0 4.596-3.702 8.299-8.299 8.299h-16.214c4.554 0 8.299-3.702 8.299-8.299 0-4.596-3.745-8.299-8.299-8.299h16.214C361.246 273.433 364.949 277.136 364.949 281.732z" opacity=".08"/><path fill="#e5e3e5" d="M292.62,318.508L292.62,318.508c0-4.588-3.72-8.308-8.308-8.308H155.324c-4.588,0-8.308,3.72-8.308,8.308v0c0,4.588,3.72,8.308,8.308,8.308h128.988C288.9,326.816,292.62,323.096,292.62,318.508z"/><path d="M292.601,318.517c0,4.596-3.702,8.299-8.299,8.299h-16.214c4.554,0,8.299-3.702,8.299-8.299s-3.745-8.299-8.299-8.299h16.214C288.899,310.219,292.601,313.921,292.601,318.517z" opacity=".08"/><path fill="#f96464" d="M339.371,133.505c0,17.846-5.607,34.398-15.204,47.984l-2.534-7.279c-4.151-11.969-15.474-20.002-28.143-20.002h-12.724c-2.858,0-5.499,1.456-7.063,3.828l-10.675,15.851c-3.343,5.014-10.783,5.014-14.126,0l-10.621-15.851c-1.618-2.372-4.259-3.828-7.063-3.828h-12.724c-12.67,0-23.992,8.087-28.143,20.002l-2.588,7.279c-9.543-13.533-15.15-30.085-15.15-47.984c0-46.043,37.309-83.406,83.352-83.406C302.062,50.098,339.371,87.462,339.371,133.505z"/><path d="M339.399,133.533c0,21.449-8.128,41.025-21.406,55.793c-12.937,14.342-31.237,24.556-52.175,27.024c-0.766,0.085-1.532,0.17-2.298,0.213c-1.362,0.17-2.766,0.255-4.213,0.298c-1.107,0.042-2.213,0.042-3.319,0.042c-1.149,0-2.298,0-3.447-0.042c-1.064-0.043-2.128-0.128-3.149-0.213c0.298,0,0.553-0.042,0.851-0.085c0.766-0.043,1.532-0.128,2.298-0.213c20.896-2.468,39.195-12.682,52.133-27.024c13.32-14.767,21.406-34.344,21.406-55.793c0-43.834-33.79-79.752-76.773-83.115c2.213-0.213,4.426-0.298,6.682-0.298C302.034,50.121,339.399,87.444,339.399,133.533z" opacity=".08"/><path fill="#fff" d="M285.223 112.553l-3.874 17.651c-2.592 11.913-13.166 20.418-25.37 20.418-11.877 0-22.679-8.158-25.37-20.418l-3.874-17.651c-3.524-16.195 8.796-31.516 25.399-31.516h7.719C276.427 81.037 288.777 96.358 285.223 112.553zM324.185 181.513c-15.072 21.438-40.128 35.408-68.219 35.408-28.13 0-53.372-14.125-68.177-35.365l2.554-7.32c4.171-11.959 15.491-20.002 28.173-20.002h12.682c2.809 0 5.49 1.404 7.064 3.788l10.639 15.874c3.362 5.022 10.767 5.022 14.129 0l10.682-15.874c1.575-2.383 4.213-3.788 7.065-3.788h12.725c12.682 0 23.96 8.001 28.13 20.002L324.185 181.513z"/><path d="M493.226,84.266h-98.89V15.375c0-8.475-6.895-15.371-15.372-15.371H133.019c-8.477,0-15.372,6.895-15.372,15.371v68.891H18.774c-10.356,0-18.779,8.423-18.779,18.778v321.041c0,10.354,8.423,18.778,18.779,18.778h164.133v36.958h-23.665c-8.871,0-16.086,7.217-16.086,16.088c0,8.871,7.216,16.088,16.086,16.088h193.514c8.871,0,16.089-7.217,16.089-16.088c0-8.871-7.218-16.088-16.089-16.088h-23.663v-36.958h164.133c10.356,0,18.779-8.423,18.779-18.778V103.044C512.004,92.69,503.581,84.266,493.226,84.266z M117.647,371.726h-82.7c-4.51,0-8.179-3.67-8.179-8.18V119.218c0-4.51,3.669-8.179,8.179-8.179h82.7V371.726z M394.336,111.039h82.715c4.51,0,8.179,3.669,8.179,8.179v244.328c0,4.51-3.669,8.18-8.179,8.18h-82.715V111.039z M122.854,15.375c0-5.604,4.559-10.164,10.165-10.164h245.945c5.606,0,10.165,4.56,10.165,10.164V371.71H122.854V15.375z M363.638,495.908c0,5.999-4.882,10.881-10.882,10.881H159.242c-5.998,0-10.879-4.882-10.879-10.881s4.882-10.881,10.879-10.881c23.461,0,168.725,0,193.514,0C358.756,485.027,363.638,489.909,363.638,495.908z M323.886,479.82H188.114v-36.958h135.771V479.82z M506.797,424.085c0,7.483-6.089,13.571-13.572,13.571c-49.981,0-427.824,0-474.451,0c-7.483,0-13.572-6.088-13.572-13.571V103.044c0-7.483,6.089-13.571,13.572-13.571h98.872v16.358h-82.7c-7.381,0-13.386,6.005-13.386,13.386v244.328c0,7.382,6.005,13.387,13.386,13.387H477.05c7.381,0,13.386-6.005,13.386-13.387V119.218c0-7.381-6.005-13.386-13.386-13.386h-82.715V89.473h98.89c7.483,0,13.572,6.088,13.572,13.571V424.085z"/><path d="M356.658 234.027H155.324c-6.018 0-10.912 4.894-10.912 10.911s4.894 10.911 10.912 10.911h201.335c6.018 0 10.912-4.894 10.912-10.911S362.676 234.027 356.658 234.027zM356.658 250.642H155.324c-3.145 0-5.705-2.559-5.705-5.704 0-3.145 2.56-5.704 5.705-5.704h201.335c3.145 0 5.705 2.559 5.705 5.704C362.364 248.083 359.803 250.642 356.658 250.642zM356.658 270.811H155.324c-6.018 0-10.912 4.894-10.912 10.911 0 6.017 4.894 10.911 10.912 10.911h201.335c6.018 0 10.912-4.894 10.912-10.911C367.571 275.706 362.676 270.811 356.658 270.811zM356.658 287.426H155.324c-3.145 0-5.705-2.559-5.705-5.704s2.56-5.704 5.705-5.704h201.335c3.145 0 5.705 2.559 5.705 5.704S359.803 287.426 356.658 287.426zM284.312 307.596H155.324c-6.018 0-10.912 4.896-10.912 10.912 0 6.017 4.894 10.911 10.912 10.911h128.988c6.018 0 10.912-4.894 10.912-10.911C295.224 312.492 290.33 307.596 284.312 307.596zM284.312 324.212H155.324c-3.145 0-5.705-2.559-5.705-5.704 0-3.146 2.56-5.705 5.705-5.705h128.988c3.145 0 5.705 2.559 5.705 5.705C290.017 321.653 287.457 324.212 284.312 324.212zM228.067 130.762c2.901 13.226 14.38 22.464 27.911 22.464 13.34 0 25.082-9.449 27.914-22.464l3.872-17.651c3.914-17.822-9.677-34.677-27.911-34.677h-7.719c-18.266 0-31.821 16.857-27.942 34.677L228.067 130.762zM252.134 83.641h7.719c14.913 0 26.025 13.786 22.826 28.354l-3.875 17.655c-2.316 10.644-11.917 18.369-22.826 18.369-11.067 0-20.452-7.555-22.826-18.373L229.28 112C226.103 97.403 237.219 83.641 252.134 83.641z"/><path d="M255.966,219.524c47.312,0,86.01-38.395,86.01-86.019c0-47.426-38.585-86.011-86.01-86.011c-47.397,0-85.956,38.585-85.956,86.011C170.009,180.963,208.319,219.524,255.966,219.524z M255.966,214.317c-25.959,0-50.26-12.374-65.276-33.172c0.633-0.947,4.881-24.307,27.825-24.307h12.682c2.157,0,3.915,1.145,4.902,2.633l10.638,15.874c4.403,6.572,14.073,6.547,18.453,0.004l10.69-15.883c0.977-1.482,2.838-2.627,4.896-2.627H293.5c11.561,0,21.878,7.335,25.674,18.261c0.092,0.263,2.234,6.382,2.101,6.003C306.115,201.927,281.803,214.317,255.966,214.317z M255.966,52.701c44.555,0,80.803,36.248,80.803,80.804c0,15.026-4.088,29.494-11.873,42.156c-0.198-0.271-6.575-24.056-31.405-24.056h-12.725c-3.815,0-7.26,2.003-9.214,4.963c-0.176,0.261-11.402,16.933-10.689,15.874c-2.317,3.473-7.484,3.472-9.796-0.005l-10.635-15.868c-2.083-3.056-5.503-4.964-9.214-4.964h-12.723c-25.042,0-31.244,23.826-31.435,24.086c-7.762-12.645-11.843-27.125-11.843-42.186C175.216,88.95,211.439,52.701,255.966,52.701z"/></svg>